<svg xmlns="http://www.w3.org/2000/svg" version="1.1" xmlns:xlink="http://www.w3.org/1999/xlink" xmlns:svgjs="http://svgjs.com/svgjs" width="1440" height="560" preserveAspectRatio="none" viewBox="0 0 1440 560">
    <g mask="url(&quot;#SvgjsMask1000&quot;)" fill="none">
        <rect width="1440" height="560" x="0" y="0" fill="#0e2a47"></rect>
        <path d="M31.06 -60.99L96.01 -23.49L96.01 51.51L31.06 89.01L-33.89 51.51L-33.89 -23.49zM31.06 164.01L96.01 201.51L96.01 276.51L31.06 314.01L-33.89 276.51L-33.89 201.51zM96.01 276.51L160.97 314.01L160.97 389.01L96.01 426.51L31.06 389.01L31.06 314.01zM31.06 389.01L96.01 426.51L96.01 501.51L31.06 539.01L-33.89 501.51L-33.89 426.51zM96.01 501.51L160.97 539.01L160.97 614.01L96.01 651.51L31.06 614.01L31.06 539.01zM160.97 -60.99L225.92 -23.49L225.92 51.51L160.97 89.01L96.01 51.51L96.01 -23.49zM225.92 276.51L290.88 314.01L290.88 389.01L225.92 426.51L160.97 389.01L160.97 314.01zM160.97 389.01L225.92 426.51L225.92 501.51L160.97 539.01L96.01 501.51L96.01 426.51zM225.92 501.51L290.88 539.01L290.88 614.01L225.92 651.51L160.97 614.01L160.97 539.01zM290.88 164.01L355.83 201.51L355.83 276.51L290.88 314.01L225.92 276.51L225.92 201.51zM355.83 501.51L420.78 539.01L420.78 614.01L355.83 651.51L290.88 614.01L290.88 539.01zM420.78 164.01L485.74 201.51L485.74 276.51L420.78 314.01L355.83 276.51L355.83 201.51zM485.74 276.51L550.69 314.01L550.69 389.01L485.74 426.51L420.78 389.01L420.78 314.01zM550.69 -60.99L615.64 -23.49L615.64 51.51L550.69 89.01L485.74 51.51L485.74 -23.49zM615.64 51.51L680.6 89.01L680.6 164.01L615.64 201.51L550.69 164.01L550.69 89.01zM745.55 501.51L810.5 539.01L810.5 614.01L745.55 651.51L680.6 614.01L680.6 539.01zM875.46 501.51L940.41 539.01L940.41 614.01L875.46 651.51L810.5 614.01L810.5 539.01zM940.41 -60.99L1005.37 -23.49L1005.37 51.51L940.41 89.01L875.46 51.51L875.46 -23.49zM1005.37 51.51L1070.32 89.01L1070.32 164.01L1005.37 201.51L940.41 164.01L940.41 89.01zM1135.27 276.51L1200.23 314.01L1200.23 389.01L1135.27 426.51L1070.32 389.01L1070.32 314.01zM1200.23 164.01L1265.18 201.51L1265.18 276.51L1200.23 314.01L1135.27 276.51L1135.27 201.51zM1265.18 276.51L1330.13 314.01L1330.13 389.01L1265.18 426.51L1200.23 389.01L1200.23 314.01zM1200.23 389.01L1265.18 426.51L1265.18 501.51L1200.23 539.01L1135.27 501.51L1135.27 426.51zM1265.18 501.51L1330.13 539.01L1330.13 614.01L1265.18 651.51L1200.23 614.01L1200.23 539.01zM1395.09 51.51L1460.04 89.01L1460.04 164.01L1395.09 201.51L1330.13 164.01L1330.13 89.01zM1395.09 501.51L1460.04 539.01L1460.04 614.01L1395.09 651.51L1330.13 614.01L1330.13 539.01zM1460.04 164.01L1525 201.51L1525 276.51L1460.04 314.01L1395.09 276.51L1395.09 201.51zM1525 276.51L1589.95 314.01L1589.95 389.01L1525 426.51L1460.04 389.01L1460.04 314.01zM1525 501.51L1589.95 539.01L1589.95 614.01L1525 651.51L1460.04 614.01L1460.04 539.01z" stroke="#03305d" stroke-width="2"></path>
        <path d="M23.56 -60.99 a7.5 7.5 0 1 0 15 0 a7.5 7.5 0 1 0 -15 0zM88.51 -23.49 a7.5 7.5 0 1 0 15 0 a7.5 7.5 0 1 0 -15 0zM88.51 51.51 a7.5 7.5 0 1 0 15 0 a7.5 7.5 0 1 0 -15 0zM23.56 89.01 a7.5 7.5 0 1 0 15 0 a7.5 7.5 0 1 0 -15 0zM-41.39 51.51 a7.5 7.5 0 1 0 15 0 a7.5 7.5 0 1 0 -15 0zM-41.39 -23.49 a7.5 7.5 0 1 0 15 0 a7.5 7.5 0 1 0 -15 0zM23.56 164.01 a7.5 7.5 0 1 0 15 0 a7.5 7.5 0 1 0 -15 0zM88.51 201.51 a7.5 7.5 0 1 0 15 0 a7.5 7.5 0 1 0 -15 0zM88.51 276.51 a7.5 7.5 0 1 0 15 0 a7.5 7.5 0 1 0 -15 0zM23.56 314.01 a7.5 7.5 0 1 0 15 0 a7.5 7.5 0 1 0 -15 0zM-41.39 276.51 a7.5 7.5 0 1 0 15 0 a7.5 7.5 0 1 0 -15 0zM-41.39 201.51 a7.5 7.5 0 1 0 15 0 a7.5 7.5 0 1 0 -15 0zM153.47 314.01 a7.5 7.5 0 1 0 15 0 a7.5 7.5 0 1 0 -15 0zM153.47 389.01 a7.5 7.5 0 1 0 15 0 a7.5 7.5 0 1 0 -15 0zM88.51 426.51 a7.5 7.5 0 1 0 15 0 a7.5 7.5 0 1 0 -15 0zM23.56 389.01 a7.5 7.5 0 1 0 15 0 a7.5 7.5 0 1 0 -15 0zM88.51 501.51 a7.5 7.5 0 1 0 15 0 a7.5 7.5 0 1 0 -15 0zM23.56 539.01 a7.5 7.5 0 1 0 15 0 a7.5 7.5 0 1 0 -15 0zM-41.39 501.51 a7.5 7.5 0 1 0 15 0 a7.5 7.5 0 1 0 -15 0zM-41.39 426.51 a7.5 7.5 0 1 0 15 0 a7.5 7.5 0 1 0 -15 0zM153.47 539.01 a7.5 7.5 0 1 0 15 0 a7.5 7.5 0 1 0 -15 0zM153.47 614.01 a7.5 7.5 0 1 0 15 0 a7.5 7.5 0 1 0 -15 0zM88.51 651.51 a7.5 7.5 0 1 0 15 0 a7.5 7.5 0 1 0 -15 0zM23.56 614.01 a7.5 7.5 0 1 0 15 0 a7.5 7.5 0 1 0 -15 0zM153.47 -60.99 a7.5 7.5 0 1 0 15 0 a7.5 7.5 0 1 0 -15 0zM218.42 -23.49 a7.5 7.5 0 1 0 15 0 a7.5 7.5 0 1 0 -15 0zM218.42 51.51 a7.5 7.5 0 1 0 15 0 a7.5 7.5 0 1 0 -15 0zM153.47 89.01 a7.5 7.5 0 1 0 15 0 a7.5 7.5 0 1 0 -15 0zM218.42 276.51 a7.5 7.5 0 1 0 15 0 a7.5 7.5 0 1 0 -15 0zM283.38 314.01 a7.5 7.5 0 1 0 15 0 a7.5 7.5 0 1 0 -15 0zM283.38 389.01 a7.5 7.5 0 1 0 15 0 a7.5 7.5 0 1 0 -15 0zM218.42 426.51 a7.5 7.5 0 1 0 15 0 a7.5 7.5 0 1 0 -15 0zM218.42 501.51 a7.5 7.5 0 1 0 15 0 a7.5 7.5 0 1 0 -15 0zM283.38 539.01 a7.5 7.5 0 1 0 15 0 a7.5 7.5 0 1 0 -15 0zM283.38 614.01 a7.5 7.5 0 1 0 15 0 a7.5 7.5 0 1 0 -15 0zM218.42 651.51 a7.5 7.5 0 1 0 15 0 a7.5 7.5 0 1 0 -15 0zM283.38 164.01 a7.5 7.5 0 1 0 15 0 a7.5 7.5 0 1 0 -15 0zM348.33 201.51 a7.5 7.5 0 1 0 15 0 a7.5 7.5 0 1 0 -15 0zM348.33 276.51 a7.5 7.5 0 1 0 15 0 a7.5 7.5 0 1 0 -15 0zM218.42 201.51 a7.5 7.5 0 1 0 15 0 a7.5 7.5 0 1 0 -15 0zM348.33 501.51 a7.5 7.5 0 1 0 15 0 a7.5 7.5 0 1 0 -15 0zM413.28 539.01 a7.5 7.5 0 1 0 15 0 a7.5 7.5 0 1 0 -15 0zM413.28 614.01 a7.5 7.5 0 1 0 15 0 a7.5 7.5 0 1 0 -15 0zM348.33 651.51 a7.5 7.5 0 1 0 15 0 a7.5 7.5 0 1 0 -15 0zM413.28 164.01 a7.5 7.5 0 1 0 15 0 a7.5 7.5 0 1 0 -15 0zM478.24 201.51 a7.5 7.5 0 1 0 15 0 a7.5 7.5 0 1 0 -15 0zM478.24 276.51 a7.5 7.5 0 1 0 15 0 a7.5 7.5 0 1 0 -15 0zM413.28 314.01 a7.5 7.5 0 1 0 15 0 a7.5 7.5 0 1 0 -15 0zM543.19 314.01 a7.5 7.5 0 1 0 15 0 a7.5 7.5 0 1 0 -15 0zM543.19 389.01 a7.5 7.5 0 1 0 15 0 a7.5 7.5 0 1 0 -15 0zM478.24 426.51 a7.5 7.5 0 1 0 15 0 a7.5 7.5 0 1 0 -15 0zM413.28 389.01 a7.5 7.5 0 1 0 15 0 a7.5 7.5 0 1 0 -15 0zM543.19 -60.99 a7.5 7.5 0 1 0 15 0 a7.5 7.5 0 1 0 -15 0zM608.14 -23.49 a7.5 7.5 0 1 0 15 0 a7.5 7.5 0 1 0 -15 0zM608.14 51.51 a7.5 7.5 0 1 0 15 0 a7.5 7.5 0 1 0 -15 0zM543.19 89.01 a7.5 7.5 0 1 0 15 0 a7.5 7.5 0 1 0 -15 0zM478.24 51.51 a7.5 7.5 0 1 0 15 0 a7.5 7.5 0 1 0 -15 0zM478.24 -23.49 a7.5 7.5 0 1 0 15 0 a7.5 7.5 0 1 0 -15 0zM673.1 89.01 a7.5 7.5 0 1 0 15 0 a7.5 7.5 0 1 0 -15 0zM673.1 164.01 a7.5 7.5 0 1 0 15 0 a7.5 7.5 0 1 0 -15 0zM608.14 201.51 a7.5 7.5 0 1 0 15 0 a7.5 7.5 0 1 0 -15 0zM543.19 164.01 a7.5 7.5 0 1 0 15 0 a7.5 7.5 0 1 0 -15 0zM738.05 501.51 a7.5 7.5 0 1 0 15 0 a7.5 7.5 0 1 0 -15 0zM803 539.01 a7.5 7.5 0 1 0 15 0 a7.5 7.5 0 1 0 -15 0zM803 614.01 a7.5 7.5 0 1 0 15 0 a7.5 7.5 0 1 0 -15 0zM738.05 651.51 a7.5 7.5 0 1 0 15 0 a7.5 7.5 0 1 0 -15 0zM673.1 614.01 a7.5 7.5 0 1 0 15 0 a7.5 7.5 0 1 0 -15 0zM673.1 539.01 a7.5 7.5 0 1 0 15 0 a7.5 7.5 0 1 0 -15 0zM867.96 501.51 a7.5 7.5 0 1 0 15 0 a7.5 7.5 0 1 0 -15 0zM932.91 539.01 a7.5 7.5 0 1 0 15 0 a7.5 7.5 0 1 0 -15 0zM932.91 614.01 a7.5 7.5 0 1 0 15 0 a7.5 7.5 0 1 0 -15 0zM867.96 651.51 a7.5 7.5 0 1 0 15 0 a7.5 7.5 0 1 0 -15 0zM932.91 -60.99 a7.5 7.5 0 1 0 15 0 a7.5 7.5 0 1 0 -15 0zM997.87 -23.49 a7.5 7.5 0 1 0 15 0 a7.5 7.5 0 1 0 -15 0zM997.87 51.51 a7.5 7.5 0 1 0 15 0 a7.5 7.5 0 1 0 -15 0zM932.91 89.01 a7.5 7.5 0 1 0 15 0 a7.5 7.5 0 1 0 -15 0zM867.96 51.51 a7.5 7.5 0 1 0 15 0 a7.5 7.5 0 1 0 -15 0zM867.96 -23.49 a7.5 7.5 0 1 0 15 0 a7.5 7.5 0 1 0 -15 0zM1062.82 89.01 a7.5 7.5 0 1 0 15 0 a7.5 7.5 0 1 0 -15 0zM1062.82 164.01 a7.5 7.5 0 1 0 15 0 a7.5 7.5 0 1 0 -15 0zM997.87 201.51 a7.5 7.5 0 1 0 15 0 a7.5 7.5 0 1 0 -15 0zM932.91 164.01 a7.5 7.5 0 1 0 15 0 a7.5 7.5 0 1 0 -15 0zM1127.77 276.51 a7.5 7.5 0 1 0 15 0 a7.5 7.5 0 1 0 -15 0zM1192.73 314.01 a7.5 7.5 0 1 0 15 0 a7.5 7.5 0 1 0 -15 0zM1192.73 389.01 a7.5 7.5 0 1 0 15 0 a7.5 7.5 0 1 0 -15 0zM1127.77 426.51 a7.5 7.5 0 1 0 15 0 a7.5 7.5 0 1 0 -15 0zM1062.82 389.01 a7.5 7.5 0 1 0 15 0 a7.5 7.5 0 1 0 -15 0zM1062.82 314.01 a7.5 7.5 0 1 0 15 0 a7.5 7.5 0 1 0 -15 0zM1192.73 164.01 a7.5 7.5 0 1 0 15 0 a7.5 7.5 0 1 0 -15 0zM1257.68 201.51 a7.5 7.5 0 1 0 15 0 a7.5 7.5 0 1 0 -15 0zM1257.68 276.51 a7.5 7.5 0 1 0 15 0 a7.5 7.5 0 1 0 -15 0zM1127.77 201.51 a7.5 7.5 0 1 0 15 0 a7.5 7.5 0 1 0 -15 0zM1322.63 314.01 a7.5 7.5 0 1 0 15 0 a7.5 7.5 0 1 0 -15 0zM1322.63 389.01 a7.5 7.5 0 1 0 15 0 a7.5 7.5 0 1 0 -15 0zM1257.68 426.51 a7.5 7.5 0 1 0 15 0 a7.5 7.5 0 1 0 -15 0zM1257.68 501.51 a7.5 7.5 0 1 0 15 0 a7.5 7.5 0 1 0 -15 0zM1192.73 539.01 a7.5 7.5 0 1 0 15 0 a7.5 7.5 0 1 0 -15 0zM1127.77 501.51 a7.5 7.5 0 1 0 15 0 a7.5 7.5 0 1 0 -15 0zM1322.63 539.01 a7.5 7.5 0 1 0 15 0 a7.5 7.5 0 1 0 -15 0zM1322.63 614.01 a7.5 7.5 0 1 0 15 0 a7.5 7.5 0 1 0 -15 0zM1257.68 651.51 a7.5 7.5 0 1 0 15 0 a7.5 7.5 0 1 0 -15 0zM1192.73 614.01 a7.5 7.5 0 1 0 15 0 a7.5 7.5 0 1 0 -15 0zM1387.59 51.51 a7.5 7.5 0 1 0 15 0 a7.5 7.5 0 1 0 -15 0zM1452.54 89.01 a7.5 7.5 0 1 0 15 0 a7.5 7.5 0 1 0 -15 0zM1452.54 164.01 a7.5 7.5 0 1 0 15 0 a7.5 7.5 0 1 0 -15 0zM1387.59 201.51 a7.5 7.5 0 1 0 15 0 a7.5 7.5 0 1 0 -15 0zM1322.63 164.01 a7.5 7.5 0 1 0 15 0 a7.5 7.5 0 1 0 -15 0zM1322.63 89.01 a7.5 7.5 0 1 0 15 0 a7.5 7.5 0 1 0 -15 0zM1387.59 501.51 a7.5 7.5 0 1 0 15 0 a7.5 7.5 0 1 0 -15 0zM1452.54 539.01 a7.5 7.5 0 1 0 15 0 a7.5 7.5 0 1 0 -15 0zM1452.54 614.01 a7.5 7.5 0 1 0 15 0 a7.5 7.5 0 1 0 -15 0zM1387.59 651.51 a7.5 7.5 0 1 0 15 0 a7.5 7.5 0 1 0 -15 0zM1517.5 201.51 a7.5 7.5 0 1 0 15 0 a7.5 7.5 0 1 0 -15 0zM1517.5 276.51 a7.5 7.5 0 1 0 15 0 a7.5 7.5 0 1 0 -15 0zM1452.54 314.01 a7.5 7.5 0 1 0 15 0 a7.5 7.5 0 1 0 -15 0zM1387.59 276.51 a7.5 7.5 0 1 0 15 0 a7.5 7.5 0 1 0 -15 0zM1582.45 314.01 a7.5 7.5 0 1 0 15 0 a7.5 7.5 0 1 0 -15 0zM1582.45 389.01 a7.5 7.5 0 1 0 15 0 a7.5 7.5 0 1 0 -15 0zM1517.5 426.51 a7.5 7.5 0 1 0 15 0 a7.5 7.5 0 1 0 -15 0zM1452.54 389.01 a7.5 7.5 0 1 0 15 0 a7.5 7.5 0 1 0 -15 0zM1517.5 501.51 a7.5 7.5 0 1 0 15 0 a7.5 7.5 0 1 0 -15 0zM1582.45 539.01 a7.5 7.5 0 1 0 15 0 a7.5 7.5 0 1 0 -15 0zM1582.45 614.01 a7.5 7.5 0 1 0 15 0 a7.5 7.5 0 1 0 -15 0zM1517.5 651.51 a7.5 7.5 0 1 0 15 0 a7.5 7.5 0 1 0 -15 0z" fill="#03305d"></path>
        <path d="M37.92 125.93L81.22 150.93L81.22 200.93L37.92 225.93L-5.38 200.93L-5.38 150.93zM124.53 -24.07L167.83 0.93L167.83 50.93L124.53 75.93L81.22 50.93L81.22 0.93zM124.53 125.93L167.83 150.93L167.83 200.93L124.53 225.93L81.22 200.93L81.22 150.93zM167.83 200.93L211.13 225.93L211.13 275.93L167.83 300.93L124.53 275.93L124.53 225.93zM167.83 350.93L211.13 375.93L211.13 425.93L167.83 450.93L124.53 425.93L124.53 375.93zM124.53 425.93L167.83 450.93L167.83 500.93L124.53 525.93L81.22 500.93L81.22 450.93zM254.43 50.93L297.74 75.93L297.74 125.93L254.43 150.93L211.13 125.93L211.13 75.93zM211.13 425.93L254.43 450.93L254.43 500.93L211.13 525.93L167.83 500.93L167.83 450.93zM297.74 -24.07L341.04 0.93L341.04 50.93L297.74 75.93L254.43 50.93L254.43 0.93zM427.64 200.93L470.95 225.93L470.95 275.93L427.64 300.93L384.34 275.93L384.34 225.93zM427.64 350.93L470.95 375.93L470.95 425.93L427.64 450.93L384.34 425.93L384.34 375.93zM427.64 500.93L470.95 525.93L470.95 575.93L427.64 600.93L384.34 575.93L384.34 525.93zM514.25 200.93L557.55 225.93L557.55 275.93L514.25 300.93L470.95 275.93L470.95 225.93zM557.55 275.93L600.85 300.93L600.85 350.93L557.55 375.93L514.25 350.93L514.25 300.93zM600.85 500.93L644.15 525.93L644.15 575.93L600.85 600.93L557.55 575.93L557.55 525.93zM644.15 -24.07L687.46 0.93L687.46 50.93L644.15 75.93L600.85 50.93L600.85 0.93zM644.15 425.93L687.46 450.93L687.46 500.93L644.15 525.93L600.85 500.93L600.85 450.93zM774.06 350.93L817.37 375.93L817.37 425.93L774.06 450.93L730.76 425.93L730.76 375.93zM817.37 125.93L860.67 150.93L860.67 200.93L817.37 225.93L774.06 200.93L774.06 150.93zM860.67 200.93L903.97 225.93L903.97 275.93L860.67 300.93L817.37 275.93L817.37 225.93zM1033.88 350.93L1077.18 375.93L1077.18 425.93L1033.88 450.93L990.58 425.93L990.58 375.93zM990.58 425.93L1033.88 450.93L1033.88 500.93L990.58 525.93L947.27 500.93L947.27 450.93zM1163.79 -24.07L1207.09 0.93L1207.09 50.93L1163.79 75.93L1120.48 50.93L1120.48 0.93zM1207.09 50.93L1250.39 75.93L1250.39 125.93L1207.09 150.93L1163.79 125.93L1163.79 75.93zM1207.09 500.93L1250.39 525.93L1250.39 575.93L1207.09 600.93L1163.79 575.93L1163.79 525.93zM1337 425.93L1380.3 450.93L1380.3 500.93L1337 525.93L1293.69 500.93L1293.69 450.93zM1423.6 125.93L1466.9 150.93L1466.9 200.93L1423.6 225.93L1380.3 200.93L1380.3 150.93z" stroke="rgba(6, 80, 156, 0.93)" stroke-width="2"></path>
    </g>
    <defs>
        <mask id="SvgjsMask1000">
            <rect width="1440" height="560" fill="#ffffff"></rect>
        </mask>
    </defs>
</svg>